<svg xmlns="http://www.w3.org/2000/svg" width="640" height="480" viewBox="0 0 640 480">
<rect width="100%" height="100%" fill="white"/>
<text x="70" y="25" font-family="sans-serif" font-size="16">Balanced learned control: final-state geography</text>
<rect x="525.0" y="123.8" width="65.0" height="90.0" fill="#c6f6d5" opacity="0.7"/>
<line x1="70" y1="225.0" x2="590" y2="225.0" stroke="#cbd5e0"/>
<line x1="330.0" y1="45" x2="330.0" y2="405" stroke="#cbd5e0"/>
<g><title>seed 0, start 0: x=0.950, y=0.592</title><circle cx="577.0" cy="91.7" r="4" fill="#2b6cb0" opacity="0.75"/></g>
<g><title>seed 0, start 1: x=0.950, y=0.653</title><circle cx="577.0" cy="78.0" r="4" fill="#2b6cb0" opacity="0.75"/></g>
<g><title>seed 0, start 2: x=0.950, y=0.649</title><circle cx="577.0" cy="79.0" r="4" fill="#2b6cb0" opacity="0.75"/></g>
<g><title>seed 0, start 3: x=0.950, y=0.605</title><circle cx="577.0" cy="88.9" r="4" fill="#2b6cb0" opacity="0.75"/></g>
<g><title>seed 1, start 0: x=-0.085, y=-0.640</title><circle cx="307.9" cy="368.9" r="4" fill="#2b6cb0" opacity="0.75"/></g>
<g><title>seed 1, start 1: x=0.950, y=0.620</title><circle cx="577.0" cy="85.6" r="4" fill="#2b6cb0" opacity="0.75"/></g>
<g><title>seed 1, start 2: x=0.950, y=0.607</title><circle cx="577.0" cy="88.4" r="4" fill="#2b6cb0" opacity="0.75"/></g>
<g><title>seed 1, start 3: x=0.950, y=0.554</title><circle cx="577.0" cy="100.3" r="4" fill="#2b6cb0" opacity="0.75"/></g>
<g><title>seed 2, start 0: x=0.950, y=0.668</title><circle cx="577.0" cy="74.7" r="4" fill="#2b6cb0" opacity="0.75"/></g>
<g><title>seed 2, start 1: x=0.950, y=0.560</title><circle cx="577.0" cy="98.9" r="4" fill="#2b6cb0" opacity="0.75"/></g>
<g><title>seed 2, start 2: x=0.950, y=0.640</title><circle cx="577.0" cy="80.9" r="4" fill="#2b6cb0" opacity="0.75"/></g>
<g><title>seed 2, start 3: x=-0.063, y=0.630</title><circle cx="313.6" cy="83.3" r="4" fill="#2b6cb0" opacity="0.75"/></g>
<g><title>seed 3, start 0: x=-0.035, y=0.572</title><circle cx="320.9" cy="96.3" r="4" fill="#2b6cb0" opacity="0.75"/></g>
<g><title>seed 3, start 1: x=0.950, y=0.543</title><circle cx="577.0" cy="102.8" r="4" fill="#2b6cb0" opacity="0.75"/></g>
<g><title>seed 3, start 2: x=-0.020, y=0.600</title><circle cx="324.8" cy="90.1" r="4" fill="#2b6cb0" opacity="0.75"/></g>
<g><title>seed 3, start 3: x=-0.110, y=0.555</title><circle cx="301.5" cy="100.0" r="4" fill="#2b6cb0" opacity="0.75"/></g>
<g><title>seed 4, start 0: x=0.950, y=0.661</title><circle cx="577.0" cy="76.3" r="4" fill="#2b6cb0" opacity="0.75"/></g>
<g><title>seed 4, start 1: x=0.950, y=0.250</title><circle cx="577.0" cy="168.8" r="4" fill="#2b6cb0" opacity="0.75"/></g>
<g><title>seed 4, start 2: x=0.950, y=0.272</title><circle cx="577.0" cy="163.8" r="4" fill="#2b6cb0" opacity="0.75"/></g>
<g><title>seed 4, start 3: x=-0.092, y=-0.250</title><circle cx="306.0" cy="281.3" r="4" fill="#2b6cb0" opacity="0.75"/></g>
<g><title>seed 5, start 0: x=0.614, y=0.285</title><circle cx="489.7" cy="160.9" r="4" fill="#2b6cb0" opacity="0.75"/></g>
<g><title>seed 5, start 1: x=0.950, y=0.031</title><circle cx="577.0" cy="218.0" r="4" fill="#2b6cb0" opacity="0.75"/></g>
<g><title>seed 5, start 2: x=0.808, y=-0.066</title><circle cx="540.0" cy="239.8" r="4" fill="#2b6cb0" opacity="0.75"/></g>
<g><title>seed 5, start 3: x=0.950, y=-0.059</title><circle cx="577.0" cy="238.3" r="4" fill="#2b6cb0" opacity="0.75"/></g>
<g><title>seed 6, start 0: x=0.950, y=0.604</title><circle cx="577.0" cy="89.1" r="4" fill="#2b6cb0" opacity="0.75"/></g>
<g><title>seed 6, start 1: x=0.950, y=0.595</title><circle cx="577.0" cy="91.2" r="4" fill="#2b6cb0" opacity="0.75"/></g>
<g><title>seed 6, start 2: x=0.950, y=0.570</title><circle cx="577.0" cy="96.6" r="4" fill="#2b6cb0" opacity="0.75"/></g>
<g><title>seed 6, start 3: x=0.950, y=0.585</title><circle cx="577.0" cy="93.3" r="4" fill="#2b6cb0" opacity="0.75"/></g>
<g><title>seed 7, start 0: x=0.950, y=0.588</title><circle cx="577.0" cy="92.7" r="4" fill="#2b6cb0" opacity="0.75"/></g>
<g><title>seed 7, start 1: x=-0.030, y=0.239</title><circle cx="322.3" cy="171.2" r="4" fill="#2b6cb0" opacity="0.75"/></g>
<g><title>seed 7, start 2: x=0.081, y=0.149</title><circle cx="351.2" cy="191.6" r="4" fill="#2b6cb0" opacity="0.75"/></g>
<g><title>seed 7, start 3: x=0.950, y=0.632</title><circle cx="577.0" cy="82.8" r="4" fill="#2b6cb0" opacity="0.75"/></g>
<text x="330.0" y="455" text-anchor="middle" font-family="sans-serif" font-size="12">x</text>
<text x="18" y="225" text-anchor="middle" font-family="sans-serif" font-size="12" transform="rotate(-90 18 225)">y</text>
</svg>
